<svg xmlns="http://www.w3.org/2000/svg" version="1.1" xmlns:xlink="http://www.w3.org/1999/xlink" xmlns:svgjs="http://svgjs.dev/svgjs" width="128" height="128" viewBox="0 0 128 128"><g transform="matrix(0.8046875,0,0,0.8046875,12.605420456208705,4.754620230263157)"><svg viewBox="0 0 82 95" data-background-color="#ffffff" preserveAspectRatio="xMidYMid meet" height="148" width="128" xmlns="http://www.w3.org/2000/svg" xmlns:xlink="http://www.w3.org/1999/xlink"><g id="tight-bounds" transform="matrix(1,0,0,1,-0.08392696513702447,-0.24049999999999727)"><svg viewBox="0 0 82.16785393027405 95.481" height="95.481" width="82.16785393027405"><g><svg viewBox="0 0 82.16785393027405 95.481" height="95.481" width="82.16785393027405"><g><svg viewBox="0 0 82.16785393027405 95.481" height="95.481" width="82.16785393027405"><g id="textblocktransform"><svg viewBox="0 0 82.16785393027405 95.481" height="95.481" width="82.16785393027405" id="textblock"><g><svg viewBox="0 0 82.16785393027405 95.481" height="95.481" width="82.16785393027405"><g><svg viewBox="0 0 82.16785393027405 95.481" height="95.481" width="82.16785393027405"><g><svg xmlns="http://www.w3.org/2000/svg" xmlns:xlink="http://www.w3.org/1999/xlink" version="1.1" x="0" y="0" viewBox="2.96217666004358 2.78719752817596 64.08128218807998 74.46397358499999" enable-background="new 0 0 70 80" xml:space="preserve" height="95.481" width="82.16785393027405" class="icon-icon-0" data-fill-palette-color="accent" id="icon-0"><path d="M24.6 71.4c-5.4-0.2-8.1-0.3-13.6-0.7-0.7 0-1.2-0.6-1.3-1.3-1.1-19.7-1.1-39.5 0-59.2 0-0.7 0.6-1.2 1.3-1.3 16.1-1.2 32.3-1.2 48.4 0 0.7 0.1 1.2 0.6 1.3 1.3 0.6 10 0.9 20.1 0.8 30.1 0 0 0 0.8 0.5 1.5 1.5 1.5 2.3 2.2 3.8 3.7 1.4 1.3 1.2-0.8 1.2-0.8 0.2-12.7-0.3-25.5-1.3-38.2-0.1-1.3-1.2-2.5-2.4-2.6C44.1 2.4 25.6 2.4 6.4 4 5.2 4.1 4.2 5.3 4.1 6.6 2.6 28.8 2.6 50.7 4 73c0.1 1.3 1.2 2.5 2.4 2.6 9.1 1 13.6 1.3 22.7 1.5 0 0 2.6 0.1 1.1-1.5-1.3-1.3-1.9-2-3.2-3.3C27.1 72.3 26.3 71.5 24.6 71.4z" fill="#000000" data-fill-palette-color="accent"></path><path d="M26.9 65.9c-0.6-0.6-0.6-1.7 0-2.3 1.6-1.6 2.3-2.4 3.9-4 0.6-0.6 1.6-0.6 2.2 0 2.6 2.6 3.9 3.9 6.4 6.5 0.6 0.6 1.6 0.6 2.2 0 0 0 14.8-15.9 18-18.1 0.7-0.5 1.7-0.6 2.3-0.1 1.6 1.5 2.4 2.2 3.9 3.7 0.6 0.6 0.6 1.5-0.1 2.2C58.3 61.1 51 68.5 43.9 76c-1.9 1.6-5.4 1.7-7 0.1C33 72.1 31 70 26.9 65.9z" fill="#000000" data-fill-palette-color="accent"></path><path d="M55 20.7c0 0.7-0.5 1.2-1.2 1.2-12.6-0.4-25.3-0.4-37.9 0-0.7 0-1.2-0.5-1.2-1.2 0-1 0-1.5 0.1-2.4 0-0.7 0.6-1.2 1.3-1.3 12.5-0.5 25.1-0.5 37.6 0 0.7 0 1.2 0.6 1.3 1.3C55 19.3 55 19.8 55 20.7z" fill="#000000" data-fill-palette-color="accent"></path><path d="M55.2 32.2c0 0.7-0.5 1.2-1.2 1.2-12.8-0.1-25.5-0.1-38.3 0-0.7 0-1.2-0.5-1.2-1.2 0-1 0-1.5 0-2.4 0-0.7 0.6-1.2 1.2-1.2 12.7-0.3 25.4-0.3 38.2 0 0.7 0 1.2 0.6 1.2 1.2C55.2 30.8 55.2 31.3 55.2 32.2z" fill="#000000" data-fill-palette-color="accent"></path><path d="M55.3 43.7c0 0.7-0.6 1.2-1.2 1.2-12.8 0.1-25.5 0.1-38.3 0-0.7 0-1.2-0.6-1.2-1.2 0-1 0-1.5 0-2.4 0-0.7 0.6-1.2 1.2-1.2 12.8 0 25.6 0 38.3 0 0.7 0 1.2 0.5 1.2 1.2C55.3 42.3 55.3 42.8 55.3 43.7z" fill="#000000" data-fill-palette-color="accent"></path></svg></g></svg></g></svg></g></svg></g></svg></g></svg></g><defs></defs></svg><rect width="82.16785393027405" height="95.481" fill="none" stroke="none" visibility="hidden"></rect></g></svg></g></svg>